<?xml version="1.0" encoding="UTF-8" standalone="no"?>
<svg width="541px" height="121px" viewBox="0 0 541 121" version="1.1" xmlns="http://www.w3.org/2000/svg" xmlns:xlink="http://www.w3.org/1999/xlink">
    <!-- Generator: Sketch 3.6 (26304) - http://www.bohemiancoding.com/sketch -->
    <title>BEAST white Copy</title>
    <desc>Created with Sketch.</desc>
    <defs></defs>
    <g id="ID" stroke="none" stroke-width="1" fill="none" fill-rule="evenodd">
        <g id="Logotype/Regular" transform="translate(-371.000000, -339.000000)" fill="#111111">
            <path d="M852.504537,363.840818 L852.504537,456.90657 L877.609903,456.90657 L877.609903,363.840818 L911.829956,363.840818 L911.829956,342.733122 L818.284484,342.733122 L818.284484,363.840818 L852.504537,363.840818 Z M709.363611,420.80614 C709.51659,426.967718 710.792675,432.351693 713.191896,436.958198 C715.857023,442.075241 719.45489,446.286077 723.985605,449.590834 C728.51632,452.895591 733.739889,455.32082 739.65647,456.866593 C745.573051,458.412366 751.676099,459.185241 757.965798,459.185241 C765.747967,459.185241 772.597239,458.279112 778.51382,456.466826 C784.430401,454.65454 789.387462,452.122708 793.385152,448.871254 C797.382841,445.619799 800.394389,441.755424 802.419885,437.278011 C804.445381,432.800599 805.458114,427.950141 805.458114,422.726493 C805.458114,416.33019 804.09892,411.079969 801.380491,406.975675 C798.662062,402.87138 795.437307,399.593323 791.70613,397.141407 C787.974953,394.689491 784.217181,392.903883 780.432702,391.78453 C776.648222,390.665176 773.689976,389.892301 771.557875,389.465881 C764.415336,387.653595 758.632098,386.161147 754.207988,384.988491 C749.783878,383.815835 746.319266,382.643197 743.814047,381.470542 C741.308828,380.297886 739.629823,379.018644 738.776983,377.632779 C737.924142,376.246913 737.497729,374.434654 737.497729,372.195948 C737.497729,369.744031 738.030746,367.718566 739.096796,366.11949 C740.162847,364.520414 741.522041,363.187871 743.17442,362.12182 C744.826798,361.055769 746.665708,360.309545 748.691204,359.883125 C750.7167,359.456705 752.742166,359.243498 754.767662,359.243498 C757.859209,359.243498 760.710851,359.510006 763.322675,360.043032 C765.934499,360.576057 768.253124,361.482186 770.27862,362.761447 C772.304117,364.040708 773.929819,365.799665 775.155778,368.038371 C776.17974,369.908215 776.850439,372.187061 777.16789,374.874958 C778.194004,374.823394 800.607285,374.823394 801.592335,374.823394 C801.394703,368.940176 800.151448,363.880176 797.862542,359.643265 C795.357323,355.005945 791.972663,351.194871 787.708461,348.209929 C783.444258,345.224988 778.56715,343.066268 773.076989,341.733704 C767.586829,340.401141 761.856893,339.734869 755.887009,339.734869 C750.769966,339.734869 745.653,340.427792 740.535958,341.813658 C735.418915,343.199523 730.834966,345.331593 726.783974,348.209929 C722.732981,351.088266 719.454925,354.686133 716.949706,359.003638 C714.444487,363.321143 713.191896,368.411458 713.191896,374.274736 C713.191896,379.498384 714.177978,383.949078 716.150172,387.626953 C718.122366,391.304828 720.7075,394.369677 723.905651,396.821593 C727.103803,399.27351 730.728321,401.272325 734.779313,402.818098 C738.830305,404.363871 742.98784,405.669764 747.252043,406.735814 C751.40964,407.90847 755.513873,408.974505 759.564866,409.93395 C763.615858,410.893396 767.240375,412.012732 770.438527,413.291993 C773.636679,414.571253 776.221813,416.170305 778.194007,418.089196 C780.1662,420.008088 781.152282,422.513269 781.152282,425.604816 C781.152282,428.483152 780.406058,430.855079 778.913587,432.720668 C777.421116,434.586256 775.555556,436.052054 773.316849,437.118104 C771.078143,438.184155 768.679565,438.903728 766.121044,439.276846 C763.562522,439.649964 761.163945,439.83652 758.925238,439.83652 C755.620481,439.83652 752.422378,439.436757 749.330831,438.637219 C746.239284,437.837681 743.547547,436.611741 741.255538,434.959363 C738.963529,433.306984 737.12462,431.148264 735.738754,428.483138 C734.602611,426.298248 733.932185,423.71933 733.727462,420.74633 C733.334002,420.746333 709.51659,420.746333 709.363611,420.80614 Z M630.593889,342.733122 L587.419056,456.90657 L612.684329,456.90657 L621.639109,431.48139 L664.334222,431.48139 L672.969188,456.90657 L699.033995,456.90657 L656.338882,342.733122 L630.593889,342.733122 Z M628.195287,412.772296 L643.066619,370.876717 L643.386432,370.876717 L657.778043,412.772296 L628.195287,412.772296 Z M495.472652,342.733122 L495.472652,456.90657 L559.155531,456.90657 L567.15087,435.798873 L520.578018,435.798873 L520.578018,407.815185 L560.154949,407.815188 L560.154949,388.30656 L520.578018,388.306557 L520.578018,363.840818 L579.86346,363.840818 L587.8588,342.733122 L495.472652,342.733122 Z M371.54489,342.733122 L371.54489,456.90657 L426.872639,456.90657 C431.989682,456.90657 436.973393,456.266949 441.823924,454.987688 C446.674454,453.708428 450.991894,451.736263 454.776374,449.071137 C458.560853,446.406011 461.572401,442.968049 463.811107,438.757149 C466.049814,434.546249 467.16915,429.562537 467.16915,423.805864 C467.16915,416.663325 465.436844,410.560277 461.972179,405.496537 C458.507515,400.432796 453.257294,396.888231 446.22136,394.862735 C451.338403,392.410819 455.202779,389.266017 457.814603,385.428235 C460.426427,381.590452 461.732319,376.793297 461.732319,371.036624 C461.732319,365.706371 460.85284,361.229025 459.093857,357.604453 C457.334873,353.979881 454.856343,351.074937 451.658191,348.889533 C448.460039,346.704129 444.622315,345.131728 440.144902,344.172283 C435.66749,343.212837 430.710429,342.733122 425.273571,342.733122 L371.54489,342.733122 Z M396.650256,388.946184 L396.650256,362.24175 L420.156554,362.24175 C422.39526,362.24175 424.55398,362.428306 426.632779,362.801424 C428.711577,363.174542 430.550487,363.840813 432.149563,364.800259 C433.748639,365.759704 435.02788,367.092248 435.987326,368.797928 C436.946771,370.503609 437.426487,372.68898 437.426487,375.354107 C437.426487,380.151335 435.98734,383.615947 433.109004,385.748048 C430.230667,387.880149 426.552848,388.946184 422.075435,388.946184 L396.650256,388.946184 Z M396.650256,437.397941 L396.650256,406.056211 L423.994317,406.056211 C429.431175,406.056211 433.801917,407.308801 437.106673,409.81402 C440.41143,412.319239 442.063784,416.503425 442.063784,422.366703 C442.063784,425.351645 441.557417,427.803524 440.544669,429.722415 C439.531921,431.641306 438.172727,433.160406 436.467046,434.279759 C434.761365,435.399112 432.789201,436.198638 430.550495,436.678361 C428.311789,437.158084 425.966513,437.397941 423.514596,437.397941 L396.650256,437.397941 Z" id="BEAST-white-Copy"></path>
        </g>
    </g>
</svg>