<?xml version="1.0" encoding="utf-8"?>
<!-- Generator: Adobe Illustrator 18.1.0, SVG Export Plug-In . SVG Version: 6.00 Build 0)  -->
<svg version="1.1" id="Layer_1" xmlns="http://www.w3.org/2000/svg" xmlns:xlink="http://www.w3.org/1999/xlink" x="0px" y="0px"
	 viewBox="-325 360.9 541 120" enable-background="new -325 360.9 541 120" xml:space="preserve">
<title>logo-beast-white</title>
<desc>Created with Sketch.</desc>
<g id="ID">
	<g id="Logotype_x2F_Distances" transform="translate(-370.000000, -340.000000)">
		<path id="logo-beast-white" d="M526.2,725v93.1h25.1V725h34.2v-21.1H492V725H526.2z M383,782c0.2,6.2,1.4,11.6,3.8,16.2
			c2.7,5.1,6.3,9.3,10.8,12.6c4.5,3.3,9.8,5.7,15.7,7.3c5.9,1.5,12,2.3,18.3,2.3c7.8,0,14.6-0.9,20.6-2.7c5.9-1.8,10.9-4.3,14.9-7.6
			c4-3.3,7-7.1,9-11.6s3-9.3,3-14.6c0-6.4-1.4-11.7-4.1-15.8c-2.7-4.1-5.9-7.4-9.7-9.8c-3.7-2.5-7.5-4.2-11.3-5.4
			c-3.8-1.1-6.7-1.9-8.9-2.3c-7.1-1.8-12.9-3.3-17.4-4.5s-7.9-2.3-10.4-3.5c-2.5-1.2-4.2-2.5-5-3.8s-1.3-3.2-1.3-5.4
			c0-2.5,0.5-4.5,1.6-6.1c1.1-1.6,2.4-2.9,4.1-4c1.7-1.1,3.5-1.8,5.5-2.2c2-0.4,4.1-0.6,6.1-0.6c3.1,0,5.9,0.3,8.6,0.8
			c2.6,0.5,4.9,1.4,7,2.7c2,1.3,3.7,3,4.9,5.3c1,1.9,1.7,4.2,2,6.8c1-0.1,23.5-0.1,24.4-0.1c-0.2-5.9-1.4-10.9-3.7-15.2
			c-2.5-4.6-5.9-8.5-10.2-11.4c-4.3-3-9.1-5.1-14.6-6.5c-5.5-1.3-11.2-2-17.2-2c-5.1,0-10.2,0.7-15.4,2.1c-5.1,1.4-9.7,3.5-13.8,6.4
			s-7.3,6.5-9.8,10.8c-2.5,4.3-3.8,9.4-3.8,15.3c0,5.2,1,9.7,3,13.4s4.6,6.7,7.8,9.2c3.2,2.5,6.8,4.5,10.9,6s8.2,2.9,12.5,3.9
			c4.2,1.2,8.3,2.2,12.3,3.2s7.7,2.1,10.9,3.4c3.2,1.3,5.8,2.9,7.8,4.8c2,1.9,3,4.4,3,7.5c0,2.9-0.7,5.3-2.2,7.1s-3.4,3.3-5.6,4.4
			c-2.2,1.1-4.6,1.8-7.2,2.2s-5,0.6-7.2,0.6c-3.3,0-6.5-0.4-9.6-1.2c-3.1-0.8-5.8-2-8.1-3.7c-2.3-1.7-4.1-3.8-5.5-6.5
			c-1.1-2.2-1.8-4.8-2-7.7C407,781.9,383.2,781.9,383,782z M304.2,703.9L261,818.1h25.3l9-25.4H338l8.6,25.4h26.1L330,703.9H304.2z
			 M301.8,774l14.9-41.9h0.3l14.4,41.9H301.8z M169,703.9v114.2h63.7l8-21.1h-46.6v-28h39.6v-19.5h-39.6V725h59.3l8-21.1H169z
			 M45,703.9v114.2h55.4c5.1,0,10.1-0.6,15-1.9c4.9-1.3,9.2-3.3,13-5.9s6.8-6.1,9-10.3c2.2-4.2,3.4-9.2,3.4-15
			c0-7.1-1.7-13.3-5.2-18.3c-3.5-5.1-8.7-8.6-15.8-10.6c5.1-2.5,9-5.6,11.6-9.4s3.9-8.6,3.9-14.4c0-5.3-0.9-9.8-2.6-13.4
			c-1.8-3.6-4.2-6.5-7.4-8.7c-3.2-2.2-7-3.8-11.5-4.7c-4.5-1-9.4-1.4-14.9-1.4H45z M70.1,750.1v-26.7h23.5c2.2,0,4.4,0.2,6.5,0.6
			c2.1,0.4,3.9,1,5.5,2c1.6,1,2.9,2.3,3.8,4c1,1.7,1.4,3.9,1.4,6.6c0,4.8-1.4,8.3-4.3,10.4s-6.6,3.2-11,3.2H70.1z M70.1,798.6v-31.4
			h27.4c5.4,0,9.8,1.3,13.1,3.8c3.3,2.5,5,6.7,5,12.6c0,3-0.5,5.4-1.5,7.4c-1,1.9-2.4,3.4-4.1,4.6c-1.7,1.1-3.7,1.9-5.9,2.4
			c-2.2,0.5-4.6,0.7-7,0.7H70.1z"/>
	</g>
</g>
</svg>
